<svg xmlns="http://www.w3.org/2000/svg" viewBox="-22 0 48.42 96.05">
  <defs/>
  <path fill="#000000" stroke="#000000" fill-opacity="1" stroke-width="1" stroke-opacity="1" d="M21.8942 9.6782C21.8914 9.6794 21.8886 9.6806 21.8859 9.6818C21.8859 9.6818 13.2338 13.8133 13.2338 7.8133C13.2338 -2.4823 4.89 0.68 1.89 5.68C-0.11 9.68 1.2338 13.8133 6.2338 14.8133C11.2338 15.8133 19.2338 14.8133 19.2338 14.8133H19.2338C19.2338 14.8133 19.2338 14.8133 19.2338 14.8133L-14.3973 92.9335C-14.5987 93.4139 -14.3607 93.9654 -13.873 94.1483L-11.6016 95.0001C-11.1367 95.1744 -10.6177 94.9466 -10.4313 94.4865L25.3463 10.0043C25.6271 9.311 25.0521 8.5736 24.3112 8.677C24.2253 8.689 24.1415 8.7124 24.0619 8.7467Z"/>
  <path fill="#000000" stroke="#000000" fill-opacity="1" stroke-width="1" stroke-opacity="1" d="M21.8942 9.6782C21.8914 9.6794 21.8886 9.6806 21.8859 9.6818C21.8859 9.6818 13.2338 13.8133 13.2338 7.8133C13.2338 -2.4823 4.89 0.68 1.89 5.68C-0.11 9.68 1.2338 13.8133 6.2338 14.8133C11.2338 15.8133 19.2338 14.8133 19.2338 14.8133Z" transform="translate(-7, 16)"/>
  <path fill="#000000" stroke="#000000" fill-opacity="1" stroke-width="1" stroke-opacity="1" d="M21.8942 9.6782C21.8914 9.6794 21.8886 9.6806 21.8859 9.6818C21.8859 9.6818 13.2338 13.8133 13.2338 7.8133C13.2338 -2.4823 4.89 0.68 1.89 5.68C-0.11 9.68 1.2338 13.8133 6.2338 14.8133C11.2338 15.8133 19.2338 14.8133 19.2338 14.8133Z" transform="translate(-14, 32)"/>
  <path fill="#000000" stroke="#000000" fill-opacity="1" stroke-width="1" stroke-opacity="1" d="M21.8942 9.6782C21.8914 9.6794 21.8886 9.6806 21.8859 9.6818C21.8859 9.6818 13.2338 13.8133 13.2338 7.8133C13.2338 -2.4823 4.89 0.68 1.89 5.68C-0.11 9.68 1.2338 13.8133 6.2338 14.8133C11.2338 15.8133 19.2338 14.8133 19.2338 14.8133Z" transform="translate(-21, 48)"/>
</svg>
